<svg xmlns="http://www.w3.org/2000/svg" viewBox="0 0 32 32" role="img" aria-label="Finance">
    <defs>
        <linearGradient id="finance-gradient" x1="0%" y1="0%" x2="100%" y2="100%">
            <stop offset="0%" stop-color="#2563eb"/>
            <stop offset="100%" stop-color="#0ea5e9"/>
        </linearGradient>
    </defs>
    <rect width="32" height="32" rx="8" fill="url(#finance-gradient)"/>
    <path fill="#ffffff" d="M17.2 24h-2.4v-2.4c-1.71-.36-3.16-1.46-3.27-3.4h1.96c.1 1.05.82 1.87 2.65 1.87 1.96 0 2.4-.98 2.4-1.59 0-.83-.44-1.61-2.67-2.14-2.48-.6-4.18-1.62-4.18-3.67 0-1.72 1.39-2.84 3.11-3.21V8h2.67v1.95c1.86.45 2.79 1.86 2.85 3.78h-2c-.05-1.11-.64-1.87-2.22-1.87-1.5 0-2.4.68-2.4 1.64 0 .84.65 1.39 2.67 1.91s4.18 1.39 4.18 3.91c-.01 1.83-1.38 2.83-3.12 3.16V24z"/>
</svg>
